<svg width="48" height="48" viewBox="0 0 48 48" fill="none" xmlns="http://www.w3.org/2000/svg">
<rect width="48" height="48" rx="24" fill="#025595"/>
<path d="M29 15.5C29 15.3674 28.9473 15.2402 28.8536 15.1464C28.7598 15.0527 28.6326 15 28.5 15H26C24.7411 14.9373 23.5086 15.3754 22.5717 16.2186C21.6348 17.0618 21.0698 18.2415 21 19.5V22.2H18.5C18.3674 22.2 18.2402 22.2527 18.1464 22.3464C18.0527 22.4402 18 22.5674 18 22.7V25.3C18 25.4326 18.0527 25.5598 18.1464 25.6535C18.2402 25.7473 18.3674 25.8 18.5 25.8H21V32.5C21 32.6326 21.0527 32.7598 21.1464 32.8535C21.2402 32.9473 21.3674 33 21.5 33H24.5C24.6326 33 24.7598 32.9473 24.8536 32.8535C24.9473 32.7598 25 32.6326 25 32.5V25.8H27.62C27.7312 25.8016 27.8397 25.7661 27.9285 25.6991C28.0172 25.6321 28.0811 25.5374 28.11 25.43L28.83 22.83C28.8499 22.7561 28.8526 22.6787 28.8378 22.6036C28.8231 22.5285 28.7913 22.4578 28.7449 22.397C28.6985 22.3361 28.6388 22.2867 28.5704 22.2526C28.5019 22.2184 28.4265 22.2004 28.35 22.2H25V19.5C25.0249 19.2525 25.1411 19.0231 25.326 18.8567C25.5109 18.6903 25.7512 18.5987 26 18.6H28.5C28.6326 18.6 28.7598 18.5473 28.8536 18.4535C28.9473 18.3598 29 18.2326 29 18.1V15.5Z" fill="white"/>
</svg>
