<svg width="48" height="48" viewBox="0 0 48 48" fill="none" xmlns="http://www.w3.org/2000/svg">
<rect width="48" height="48" rx="24" fill="#025595"/>
<path d="M20.08 32C21.5587 32.0495 23.0323 31.802 24.4137 31.2723C25.7952 30.7426 27.0564 29.9413 28.1229 28.9158C29.1894 27.8903 30.0395 26.6615 30.623 25.3019C31.2065 23.9423 31.5115 22.4795 31.52 21C32.1977 20.1614 32.7008 19.1958 33 18.16C33.0223 18.0782 33.0205 17.9916 32.9948 17.9108C32.9691 17.8299 32.9206 17.7583 32.855 17.7044C32.7895 17.6505 32.7098 17.6167 32.6255 17.607C32.5413 17.5974 32.456 17.6123 32.38 17.65C32.0255 17.8207 31.6264 17.8758 31.2388 17.8076C30.8513 17.7394 30.495 17.5514 30.22 17.27C29.869 16.8856 29.4443 16.5755 28.9712 16.3582C28.4982 16.1409 27.9863 16.0208 27.466 16.0049C26.9456 15.9891 26.4274 16.0778 25.9419 16.2659C25.4565 16.454 25.0138 16.7377 24.64 17.1C24.1282 17.5957 23.7533 18.2153 23.5518 18.8987C23.3503 19.5821 23.329 20.306 23.49 21C20.14 21.2 17.84 19.61 16 17.43C15.9447 17.3674 15.8724 17.3223 15.7919 17.3001C15.7114 17.2779 15.6262 17.2796 15.5466 17.3051C15.4671 17.3305 15.3967 17.3786 15.344 17.4434C15.2913 17.5082 15.2587 17.5869 15.25 17.67C14.8995 19.6144 15.1523 21.6195 15.9746 23.4161C16.7969 25.2126 18.1492 26.7145 19.85 27.72C18.7096 29.0278 17.1082 29.8447 15.38 30C15.2874 30.0154 15.2019 30.0593 15.1356 30.1256C15.0692 30.1919 15.0252 30.2774 15.0097 30.37C14.9943 30.4625 15.0082 30.5576 15.0495 30.6419C15.0908 30.7262 15.1574 30.7954 15.24 30.84C16.7435 31.5914 18.3992 31.9882 20.08 32Z" fill="white"/>
</svg>
