<svg width="66" height="20" viewBox="0 0 66 20" fill="none" xmlns="http://www.w3.org/2000/svg">
<path d="M7.67779 2.61133C5.78136 2.61133 4.36364 3.01241 3.42463 3.81459C2.50403 4.59969 2.04373 5.74321 2.04373 7.24515V9.75408H11.2681V11.3926H2.04373V18.9961H0V7.21955C0 5.25679 0.662831 3.72071 1.98849 2.61133C3.31416 1.48487 5.18297 0.921645 7.59494 0.921645C9.93326 0.921645 11.8113 1.391 13.229 2.32971L12.4833 3.89139C11.2313 3.03802 9.62946 2.61133 7.67779 2.61133Z" fill="#222222"/>
<path d="M20.4528 19.1241C19.1456 19.1241 18.1329 18.7828 17.4149 18.1001C16.7152 17.4174 16.3654 16.4701 16.3654 15.2583V0H18.3262V15.1047C18.3262 15.9069 18.5288 16.5213 18.9338 16.948C19.3389 17.3576 19.9465 17.5625 20.7566 17.5625C21.2722 17.5625 21.7141 17.4857 22.0823 17.332L22.2204 18.8425C21.6496 19.0303 21.0604 19.1241 20.4528 19.1241Z" fill="#222222"/>
<path d="M30.5563 19.1241C29.1569 19.1241 27.8957 18.834 26.7726 18.2537C25.6495 17.6563 24.7657 16.8371 24.1213 15.796C23.4769 14.7549 23.1546 13.5772 23.1546 12.263C23.1546 10.9488 23.4769 9.77115 24.1213 8.73003C24.7657 7.68891 25.6495 6.8782 26.7726 6.29791C27.8957 5.71761 29.1569 5.42747 30.5563 5.42747C31.9556 5.42747 33.2168 5.71761 34.3399 6.29791C35.4631 6.8782 36.3376 7.68891 36.9636 8.73003C37.608 9.77115 37.9303 10.9488 37.9303 12.263C37.9303 13.5772 37.608 14.7549 36.9636 15.796C36.3376 16.8371 35.4631 17.6563 34.3399 18.2537C33.2168 18.834 31.9556 19.1241 30.5563 19.1241ZM30.5563 17.5113C31.5873 17.5113 32.5079 17.2979 33.3181 16.8712C34.1466 16.4275 34.791 15.8045 35.2513 15.0023C35.7116 14.2002 35.9418 13.2871 35.9418 12.263C35.9418 11.239 35.7116 10.3258 35.2513 9.52367C34.791 8.72149 34.1466 8.10706 33.3181 7.68038C32.5079 7.23662 31.5873 7.01474 30.5563 7.01474C29.5252 7.01474 28.5954 7.23662 27.7668 7.68038C26.9567 8.10706 26.3123 8.72149 25.8336 9.52367C25.3733 10.3258 25.1431 11.239 25.1431 12.263C25.1431 13.2871 25.3733 14.2002 25.8336 15.0023C26.3123 15.8045 26.9567 16.4275 27.7668 16.8712C28.5954 17.2979 29.5252 17.5113 30.5563 17.5113Z" fill="#222222"/>
<path d="M43.8116 8.1668C44.2719 7.26222 44.9531 6.57952 45.8553 6.1187C46.7759 5.65788 47.9083 5.42747 49.2523 5.42747V7.19395L48.7828 7.16835C47.2546 7.16835 46.0578 7.60357 45.1925 8.47402C44.3271 9.34446 43.8944 10.5648 43.8944 12.135V18.9961H41.9336V5.52987H43.8116V8.1668Z" fill="#222222"/>
<path d="M65.9245 5.52987V18.9961H64.0465V16.3336C63.4573 17.2382 62.6748 17.9294 61.699 18.4073C60.7415 18.8852 59.6552 19.1241 58.44 19.1241C57.0776 19.1241 55.844 18.834 54.7392 18.2537C53.6345 17.6734 52.7692 16.8627 52.1432 15.8216C51.5171 14.7805 51.2041 13.5943 51.2041 12.263C51.2041 10.9317 51.5171 9.74554 52.1432 8.70443C52.7692 7.66331 53.6345 6.86114 54.7392 6.29791C55.844 5.71761 57.0776 5.42747 58.44 5.42747C59.6184 5.42747 60.6771 5.65788 61.6161 6.1187C62.5735 6.56246 63.356 7.21955 63.9636 8.09V5.52987H65.9245ZM58.6058 17.5113C59.6184 17.5113 60.5298 17.2979 61.3399 16.8712C62.1685 16.4275 62.8129 15.8045 63.2732 15.0023C63.7519 14.2002 63.9913 13.2871 63.9913 12.263C63.9913 11.239 63.7519 10.3258 63.2732 9.52367C62.8129 8.72149 62.1685 8.10706 61.3399 7.68038C60.5298 7.23662 59.6184 7.01474 58.6058 7.01474C57.5747 7.01474 56.6449 7.23662 55.8163 7.68038C55.0062 8.10706 54.3618 8.72149 53.8831 9.52367C53.4228 10.3258 53.1926 11.239 53.1926 12.263C53.1926 13.2871 53.4228 14.2002 53.8831 15.0023C54.3618 15.8045 55.0062 16.4275 55.8163 16.8712C56.6449 17.2979 57.5747 17.5113 58.6058 17.5113Z" fill="#222222"/>
</svg>
