<svg width="49" height="26" viewBox="0 0 49 26" fill="none" xmlns="http://www.w3.org/2000/svg">
<path d="M45.1631 2.91475C43.2937 1.2103 40.8056 0.187744 38.1671 0.0395238C35.5288 -0.108696 32.9219 0.627639 30.8372 2.10996C28.9337 0.761155 26.5917 0.0287736 24.181 0.0283476C21.7703 0.0279216 19.4282 0.759477 17.524 2.1076C15.3522 0.553492 12.612 -0.186066 9.86263 0.039912C7.11329 0.265889 4.56219 1.44036 2.73016 3.32355C0.898115 5.20675 -0.0767002 7.65664 0.00471851 10.1731C0.0861372 12.6895 1.21765 15.0828 3.16826 16.8641L9.82982 22.9403C9.83498 22.9448 9.84014 22.9493 9.84594 22.954C9.85175 22.9587 9.85336 22.9609 9.85707 22.9643C9.864 22.9706 9.87142 22.9763 9.87835 22.9826C9.98424 23.0782 10.0917 23.1713 10.2008 23.262C10.2569 23.3089 10.3137 23.3544 10.3708 23.4001C10.4171 23.4369 10.4636 23.4733 10.5104 23.5094C12.4093 24.9768 14.8042 25.8036 17.2926 25.8507C19.7811 25.8979 22.2115 25.1626 24.1757 23.7683C26.2603 25.2506 28.8672 25.987 31.5056 25.8387C34.1441 25.6905 36.6321 24.668 38.5015 22.9635L45.1633 16.8883C47.1921 15.0338 48.3314 12.5211 48.3314 9.90147C48.3314 7.28183 47.192 4.76918 45.1631 2.91475ZM24.1789 2.60183C25.7627 2.6009 27.3113 3.02853 28.6284 3.83058C29.9458 4.63262 30.9724 5.77302 31.5786 7.10744C32.1849 8.44187 32.3434 9.91034 32.0341 11.3269C31.7249 12.7436 30.9617 14.0447 29.8413 15.0656L24.1789 20.2295L18.5164 15.0656C17.3959 14.0447 16.6328 12.7436 16.3235 11.3269C16.0143 9.91028 16.1728 8.44181 16.779 7.10739C17.3853 5.77294 18.4121 4.63254 19.7292 3.83052C21.0465 3.02849 22.5951 2.60087 24.1789 2.60183ZM9.50912 15.977C9.50623 15.0175 9.71207 14.0671 10.1147 13.1807C10.5173 12.2943 11.1087 11.4895 11.8547 10.813L13.3617 9.43852C13.2888 10.8124 13.5319 12.1849 14.0754 13.4679C14.619 14.7509 15.451 15.916 16.5178 16.8883L22.0644 21.9467C20.868 22.7109 19.4646 23.161 18.007 23.2478C16.5496 23.3345 15.0938 23.0548 13.7986 22.439C12.5035 21.823 11.4185 20.8949 10.6621 19.7552C9.90562 18.6158 9.5067 17.3087 9.50879 15.9766L9.50912 15.977ZM5.16648 15.0413C3.74912 13.749 2.91472 12.0189 2.82812 10.1928C2.74152 8.36669 3.409 6.57734 4.69871 5.17825C5.98843 3.77915 7.8066 2.87205 9.79404 2.63611C11.7815 2.40017 13.7937 2.85258 15.4332 3.90394L9.8561 8.99017C8.84689 9.90556 8.0468 10.9944 7.50212 12.1937C6.95745 13.393 6.67901 14.6789 6.68293 15.977C6.68293 16.1302 6.68685 16.2829 6.6947 16.435L5.16648 15.0413ZM30.841 23.2798C29.2049 23.2834 27.6075 22.8263 26.2668 21.9711L31.8406 16.8883C32.9075 15.916 33.7394 14.7509 34.2829 13.4679C34.8264 12.1849 35.0696 10.8124 34.9967 9.43852L36.5038 10.813C37.6238 11.8344 38.3863 13.1357 38.6952 14.5523C39.0043 15.9689 38.8456 17.4373 38.2394 18.7718C37.6333 20.1062 36.6068 21.2467 35.29 22.0492C33.973 22.8516 32.4248 23.2798 30.841 23.2798ZM43.1649 15.0656L41.6633 16.435C41.6708 16.283 41.6747 16.1304 41.675 15.977C41.6789 14.6789 41.4004 13.393 40.8558 12.1937C40.3111 10.9944 39.5109 9.90556 38.5017 8.99017L32.9285 3.90732C34.5709 2.86502 36.5817 2.42126 38.5649 2.6634C40.5481 2.90553 42.3601 3.81603 43.6441 5.21562C44.928 6.6152 45.5909 8.40245 45.5022 10.2255C45.4135 12.0485 44.5798 13.7752 43.1649 15.0656Z" fill="#025595"/>
</svg>
